<svg width="0" height="0" class="hidden">
  <symbol xmlns="http://www.w3.org/2000/svg" viewBox="0 0 512 512" id="bell">
    <path d="M481.422 428.828c-25.085-50.171-38.345-106.339-38.345-162.433v-30.087c0-86.12-58.501-158.823-137.846-180.49v-6.587C305.231 22.085 283.146 0 256 0s-49.231 22.085-49.231 49.231v6.587c-79.345 21.666-137.846 94.369-137.846 180.49v30.087c0 56.094-13.26 112.262-38.345 162.433a9.845 9.845 0 0 0 8.806 14.249h138.773C182.871 481.854 215.971 512 256 512s73.128-30.146 77.843-68.923h138.773a9.845 9.845 0 0 0 8.806-14.249zM226.461 49.231c0-16.288 13.251-29.538 29.538-29.538s29.538 13.251 29.538 29.538v2.328c-.23-.036-.463-.067-.693-.103-.409-.063-.818-.121-1.228-.182a183.389 183.389 0 0 0-7.372-.944c-.501-.054-1-.113-1.503-.163a191.403 191.403 0 0 0-4.069-.362c-.473-.036-.948-.065-1.422-.099a178.74 178.74 0 0 0-2.926-.186c-.544-.03-1.088-.055-1.633-.081-.975-.045-1.95-.082-2.924-.111-.477-.015-.953-.031-1.431-.042a195.999 195.999 0 0 0-4.338-.054c-1.446 0-2.893.022-4.339.055-.478.011-.954.028-1.431.042a202.363 202.363 0 0 0-4.557.192c-.976.053-1.951.117-2.926.186-.474.033-.949.061-1.422.098-1.358.106-2.715.227-4.069.362-.502.05-1.001.109-1.503.163-.939.101-1.878.208-2.815.323a204.158 204.158 0 0 0-4.557.621c-.41.061-.819.119-1.228.182-.229.035-.462.066-.692.102v-2.327zM256 492.308c-29.153 0-53.415-21.347-57.978-49.231h115.956c-4.563 27.883-28.825 49.231-57.978 49.231zM54.946 423.385a380.465 380.465 0 0 0 8.176-19.692h55.031c5.438 0 9.846-4.408 9.846-9.846s-4.408-9.846-9.846-9.846H70.056c12.214-37.935 18.559-77.787 18.559-117.605v-30.087c0-80.575 57.23-148.03 133.174-163.865.228-.047.456-.098.684-.145.905-.185 1.816-.354 2.725-.524.642-.119 1.283-.24 1.927-.352.642-.112 1.286-.216 1.931-.321.972-.157 1.945-.308 2.92-.448.386-.056.773-.109 1.16-.162 1.304-.177 2.608-.343 3.916-.489l.319-.036a170.485 170.485 0 0 1 37.256 0l.32.036a171.54 171.54 0 0 1 5.076.651c.976.14 1.949.291 2.92.448.644.104 1.289.209 1.931.321.644.111 1.285.232 1.927.352.91.17 1.821.339 2.725.524.228.046.456.097.684.145 75.943 15.835 133.173 83.29 133.173 163.865v30.087c0 53.879 11.603 107.821 33.669 156.99H54.946z"></path>
    <path d="M157.341 391.926a9.252 9.252 0 0 0-.561-1.841 9.631 9.631 0 0 0-.906-1.703 9.38 9.38 0 0 0-1.221-1.497 9.435 9.435 0 0 0-1.497-1.221 9.768 9.768 0 0 0-1.703-.906 9.252 9.252 0 0 0-1.841-.561 9.696 9.696 0 0 0-3.84 0c-.63.118-1.25.315-1.841.561a9.631 9.631 0 0 0-1.703.906 9.38 9.38 0 0 0-1.497 1.221 9.435 9.435 0 0 0-1.221 1.497 9.768 9.768 0 0 0-.906 1.703 9.252 9.252 0 0 0-.561 1.841c-.128.63-.197 1.28-.197 1.92s.069 1.29.197 1.92c.118.63.315 1.25.561 1.841.246.601.551 1.172.906 1.703a9.38 9.38 0 0 0 1.221 1.497c.453.453.955.866 1.497 1.221.532.354 1.103.66 1.703.906a9.252 9.252 0 0 0 1.841.561c.63.128 1.28.197 1.92.197.64 0 1.29-.069 1.92-.197a9.252 9.252 0 0 0 1.841-.561 9.631 9.631 0 0 0 1.703-.906 9.38 9.38 0 0 0 1.497-1.221 9.38 9.38 0 0 0 1.221-1.497c.354-.532.66-1.103.906-1.703a9.252 9.252 0 0 0 .561-1.841c.128-.63.197-1.28.197-1.92 0-.64-.069-1.29-.197-1.92z"></path>
  </symbol>
  <symbol xmlns="http://www.w3.org/2000/svg" viewBox="0 0 512 512" id="calendar">
    <path d="M462 44h-47.667V30c0-16.542-13.458-30-30-30s-30 13.458-30 30v14h-168V30c0-16.542-13.458-30-30-30s-30 13.458-30 30v14.37a9.979 9.979 0 0 0-2.666-.37H83.823c-27.57 0-50 22.43-50 50v170.333c0 5.523 4.478 10 10 10s10-4.477 10-10V147h360.51c5.522 0 10-4.477 10-10s-4.478-10-10-10H53.823V94c0-16.542 13.458-30 30-30h39.844c.925 0 1.816-.136 2.666-.37V76.5c0 16.542 13.458 30 30 30s30-13.458 30-30V64h168v12.5c0 16.542 13.458 30 30 30s30-13.458 30-30V64H462c16.542 0 30 13.458 30 30v379.994c0 9.928-8.077 18.006-18.006 18.006s-18.006-8.078-18.006-18.006v-25.869c0-5.523-4.478-10-10-10H329.667c-5.522 0-10 4.477-10 10s4.478 10 10 10h106.321v15.869A37.775 37.775 0 0 0 440.533 492H38c-9.925 0-18-8.075-18-18v-15.875h223.825c5.522 0 10-4.477 10-10s-4.478-10-10-10h-99.916c17.474-15.049 28.57-37.309 28.57-62.125 0-45.215-36.785-82-82-82s-82 36.785-82 82c0 24.816 11.096 47.076 28.57 62.125H10c-5.522 0-10 4.477-10 10V474c0 20.953 17.047 38 38 38h435.994C494.95 512 512 494.951 512 473.994V94c0-27.57-22.43-50-50-50zM166.333 76.5c0 5.514-4.486 10-10 10s-10-4.486-10-10V30c0-5.514 4.486-10 10-10s10 4.486 10 10v46.5zm228 0c0 5.514-4.486 10-10 10s-10-4.486-10-10V30c0-5.514 4.486-10 10-10s10 4.486 10 10v46.5zM28.479 376c0-34.187 27.813-62 62-62s62 27.813 62 62-27.813 62-62 62-62-27.813-62-62z"></path>
    <path d="M468.309 129.93a10.072 10.072 0 0 0-7.069-2.93c-2.631 0-5.21 1.07-7.07 2.93-1.86 1.86-2.93 4.44-2.93 7.07s1.069 5.21 2.93 7.07a10.076 10.076 0 0 0 7.07 2.93c2.63 0 5.21-1.07 7.069-2.93 1.86-1.86 2.931-4.44 2.931-7.07s-1.07-5.21-2.931-7.07zm-169.66 311.12c-1.859-1.86-4.439-2.92-7.069-2.92s-5.21 1.06-7.07 2.92a10.093 10.093 0 0 0-2.93 7.07c0 2.64 1.069 5.21 2.93 7.08 1.86 1.86 4.44 2.92 7.07 2.92s5.21-1.06 7.069-2.92a10.118 10.118 0 0 0 2.931-7.08c0-2.63-1.07-5.2-2.931-7.07zM226.245 304c-20.953 0-38 17.047-38 38s17.047 38 38 38 38-17.047 38-38-17.047-38-38-38zm0 56c-9.925 0-18-8.075-18-18s8.075-18 18-18 18 8.075 18 18-8.075 18-18 18zm93.333-56c-20.953 0-38 17.047-38 38s17.047 38 38 38 38-17.047 38-38-17.047-38-38-38zm0 56c-9.925 0-18-8.075-18-18s8.075-18 18-18 18 8.075 18 18-8.075 18-18 18zm93.334-56c-20.953 0-38 17.047-38 38s17.047 38 38 38 38-17.047 38-38-17.047-38-38-38zm0 56c-9.925 0-18-8.075-18-18s8.075-18 18-18 18 8.075 18 18-8.075 18-18 18zm-280-160c-20.953 0-38 17.047-38 38s17.047 38 38 38 38-17.047 38-38-17.047-38-38-38zm0 56c-9.925 0-18-8.075-18-18s8.075-18 18-18 18 8.075 18 18-8.075 18-18 18zm186.666-56c-20.953 0-38 17.047-38 38s17.047 38 38 38 38-17.047 38-38-17.047-38-38-38zm0 56c-9.925 0-18-8.075-18-18s8.075-18 18-18 18 8.075 18 18-8.075 18-18 18zm93.334-56c-20.953 0-38 17.047-38 38s17.047 38 38 38 38-17.047 38-38-17.047-38-38-38zm0 56c-9.925 0-18-8.075-18-18s8.075-18 18-18 18 8.075 18 18-8.075 18-18 18zm-186.667-56c-20.953 0-38 17.047-38 38s17.047 38 38 38 38-17.047 38-38-17.047-38-38-38zm0 56c-9.925 0-18-8.075-18-18s8.075-18 18-18 18 8.075 18 18-8.075 18-18 18zm-100.141 95.629c-3.906-3.905-10.236-3.905-14.143 0l-32.566 32.567-11.129-11.129c-3.906-3.905-10.236-3.905-14.143 0-3.905 3.905-3.905 10.237 0 14.143l18.201 18.199a10.003 10.003 0 0 0 14.142 0l39.638-39.638c3.905-3.905 3.905-10.237 0-14.142z"></path>
  </symbol>
  <symbol xmlns="http://www.w3.org/2000/svg" viewBox="0 0 512 512" id="plus">
    <path d="M331.753 11.396C307.311 3.834 281.824 0 256 0 187.62 0 123.333 26.629 74.981 74.98 26.629 123.333 0 187.62 0 256c0 109.987 69.975 207.491 174.122 242.624a7.516 7.516 0 0 0 9.522-4.718 7.514 7.514 0 0 0-4.717-9.523C80.894 451.313 15.029 359.533 15.029 256c0-64.365 25.066-124.879 70.579-170.392S191.635 15.03 256 15.03c24.317 0 48.309 3.608 71.311 10.724a7.51 7.51 0 0 0 9.4-4.958 7.514 7.514 0 0 0-4.958-9.4zm138.72 104.775c-26.468-40.518-63.635-72.61-107.483-92.808a7.513 7.513 0 0 0-9.969 3.682 7.514 7.514 0 0 0 3.682 9.969c41.277 19.014 76.268 49.228 101.188 87.377 25.567 39.137 39.08 84.647 39.08 131.61 0 64.365-25.065 124.878-70.579 170.392C380.879 471.905 320.365 496.97 256 496.97a243.03 243.03 0 0 1-45.412-4.271c-4.075-.783-8.012 1.896-8.789 5.974a7.515 7.515 0 0 0 5.974 8.79A258.142 258.142 0 0 0 256 512c68.38 0 132.667-26.628 181.02-74.98C485.371 388.667 512 324.38 512 256c0-49.889-14.36-98.241-41.527-139.829z"></path>
    <path d="M352.391 248.485h-88.876v-88.876a7.515 7.515 0 1 0-15.03 0v88.876H159.61a7.515 7.515 0 1 0 0 15.03h88.876v88.875a7.515 7.515 0 0 0 15.029 0v-88.875h88.876a7.516 7.516 0 0 0 0-15.03z"></path>
  </symbol>
  <symbol xmlns="http://www.w3.org/2000/svg" viewBox="0 0 512 512" id="search">
    <path d="M310 190c-5.52 0-10 4.48-10 10s4.48 10 10 10 10-4.48 10-10-4.48-10-10-10z"></path>
    <path d="M500.281 443.719l-133.48-133.48C388.546 277.485 400 239.555 400 200 400 89.72 310.28 0 200 0S0 89.72 0 200s89.72 200 200 200c39.556 0 77.486-11.455 110.239-33.198l36.895 36.895.016.016 96.568 96.568C451.276 507.838 461.319 512 472 512c10.681 0 20.724-4.162 28.278-11.716C507.837 492.731 512 482.687 512 472s-4.163-20.731-11.719-28.281zm-194.745-97.992l-.002.002C274.667 368.149 238.175 380 200 380c-99.252 0-180-80.748-180-180S100.748 20 200 20s180 80.748 180 180c0 38.175-11.851 74.667-34.272 105.535a180.872 180.872 0 0 1-40.192 40.192zm20.98 9.066a200.674 200.674 0 0 0 28.277-28.277l28.371 28.371a242.733 242.733 0 0 1-28.277 28.277l-28.371-28.371zm159.623 131.346c-3.78 3.78-8.801 5.861-14.139 5.861s-10.359-2.081-14.139-5.861l-88.795-88.795a262.775 262.775 0 0 0 28.277-28.277l88.798 88.798A19.846 19.846 0 0 1 492 472a19.856 19.856 0 0 1-5.861 14.139z"></path>
    <path d="M200 40c-88.225 0-160 71.775-160 160s71.775 160 160 160 160-71.775 160-160S288.225 40 200 40zm0 300c-77.196 0-140-62.804-140-140S122.804 60 200 60s140 62.804 140 140-62.804 140-140 140z"></path>
    <path d="M312.065 157.073c-8.611-22.412-23.604-41.574-43.36-55.413C248.479 87.49 224.721 80 200 80c-5.522 0-10 4.478-10 10s4.478 10 10 10c41.099 0 78.631 25.818 93.396 64.247a10.003 10.003 0 0 0 9.337 6.416 9.978 9.978 0 0 0 3.584-.668c5.155-1.981 7.729-7.766 5.748-12.922z"></path>
  </symbol>
  <symbol viewBox="0 0 512 512" xmlns="http://www.w3.org/2000/svg" id="support">
    <path d="M90.05 395.95c-7.167 0-14.058 1.788-20.171 5.148C37.676 359.816 20 308.535 20 256 20 125.867 125.867 20 256 20c15.82 0 31.633 1.574 47 4.68 5.406 1.093 10.688-2.407 11.781-7.82s-2.406-10.688-7.82-11.786C290.293 1.707 273.148 0 256 0 187.621 0 123.332 26.629 74.98 74.98 26.63 123.332 0 187.621 0 256c0 57.52 19.531 113.652 55.09 158.652-4.578 6.84-7.04 14.88-7.04 23.297 0 11.219 4.372 21.766 12.305 29.696 7.93 7.933 18.477 12.304 29.696 12.304s21.765-4.37 29.699-12.304c7.934-7.93 12.3-18.48 12.3-29.7 0-11.215-4.366-21.765-12.3-29.695-7.934-7.934-18.48-12.3-29.7-12.3zm15.555 57.554c-4.152 4.156-9.68 6.445-15.554 6.445s-11.399-2.289-15.555-6.445-6.445-9.68-6.445-15.555a21.855 21.855 0 0 1 6.445-15.558c4.152-4.157 9.68-6.442 15.555-6.442s11.398 2.29 15.554 6.442a21.856 21.856 0 0 1 6.446 15.558c0 5.875-2.29 11.399-6.446 15.555zM456.902 97.336c10.871-16.309 9.125-38.606-5.254-52.984-7.933-7.93-18.48-12.301-29.699-12.301s-21.765 4.37-29.699 12.3c-7.934 7.934-12.3 18.481-12.3 29.7s4.366 21.765 12.3 29.699 18.48 12.3 29.7 12.3c7.167 0 14.058-1.788 20.171-5.148C474.324 152.187 492 203.465 492 256c0 130.133-105.867 236-236 236-15.664 0-31.328-1.543-46.55-4.59-5.415-1.082-10.684 2.43-11.77 7.844-1.082 5.418 2.43 10.683 7.843 11.77A258.08 258.08 0 0 0 256 512c68.379 0 132.668-26.629 181.02-74.98C485.37 388.668 512 324.379 512 256c0-57.523-19.535-113.66-55.098-158.664zm-50.507-7.727a21.856 21.856 0 0 1-6.446-15.558c0-5.875 2.29-11.399 6.446-15.555 4.152-4.156 9.68-6.445 15.554-6.445s11.403 2.289 15.559 6.445c8.574 8.578 8.574 22.535 0 31.113a21.875 21.875 0 0 1-15.559 6.442 21.853 21.853 0 0 1-15.554-6.442zm0 0"></path>
    <path d="M214.734 428c0 5.523 4.48 10 10 10h62.528c5.523 0 10-4.477 10-10v-19.387a156.596 156.596 0 0 0 37.531-15.554l13.687 13.687a9.994 9.994 0 0 0 14.145-.004l44.195-44.226c3.903-3.907 3.903-10.239 0-14.141l-13.672-13.672a156.596 156.596 0 0 0 15.555-37.531h19.313c5.523 0 10-4.477 10-10v-62.527c0-5.524-4.477-10-10-10h-19.317a156.623 156.623 0 0 0-15.55-37.528l13.597-13.597a10.009 10.009 0 0 0 2.93-7.075 10.029 10.029 0 0 0-2.934-7.074l-44.23-44.195c-3.903-3.903-10.235-3.903-14.14.004l-13.579 13.582a156.596 156.596 0 0 0-37.531-15.555V84c0-5.523-4.477-10-10-10h-62.528c-5.52 0-10 4.477-10 10v19.21a156.464 156.464 0 0 0-37.527 15.552l-13.582-13.582c-3.902-3.903-10.234-3.907-14.14-.004l-44.227 44.199a9.987 9.987 0 0 0-2.934 7.07c0 2.653 1.055 5.2 2.93 7.075l13.598 13.597a156.568 156.568 0 0 0-15.555 37.528H84.02c-5.524 0-10 4.476-10 9.996l-.036 62.527c-.004 2.652 1.051 5.2 2.926 7.074s4.418 2.93 7.074 2.93h19.313a156.596 156.596 0 0 0 15.555 37.531l-13.672 13.672c-3.903 3.902-3.907 10.234 0 14.14l44.195 44.227a10.003 10.003 0 0 0 7.07 2.934h.004a10 10 0 0 0 7.07-2.93l13.684-13.687a156.728 156.728 0 0 0 37.531 15.554zm-33.609-55.973a10.003 10.003 0 0 0-12.5 1.328l-12.176 12.176-30.058-30.082 12.164-12.168a9.997 9.997 0 0 0 1.328-12.496c-9.067-14.031-15.442-29.41-18.942-45.715a10.003 10.003 0 0 0-9.777-7.898H93.988l.024-42.527h17.152a9.999 9.999 0 0 0 9.777-7.899c3.5-16.3 9.875-31.68 18.942-45.71a9.997 9.997 0 0 0-1.328-12.497l-12.086-12.09 30.082-30.058 12.074 12.078a10.007 10.007 0 0 0 12.5 1.328 136.809 136.809 0 0 1 45.71-18.942 10.006 10.006 0 0 0 7.9-9.777V94h42.527v17.074a9.996 9.996 0 0 0 7.898 9.778 136.936 136.936 0 0 1 45.711 18.941 9.992 9.992 0 0 0 12.496-1.328l12.078-12.074 30.082 30.058-12.086 12.086a9.998 9.998 0 0 0-1.328 12.5 136.97 136.97 0 0 1 18.942 45.711 9.996 9.996 0 0 0 9.777 7.899h17.184v42.527h-17.184a10.003 10.003 0 0 0-9.777 7.898 136.855 136.855 0 0 1-18.942 45.711 10.002 10.002 0 0 0 1.328 12.5l12.164 12.164-30.058 30.082-12.176-12.172a9.998 9.998 0 0 0-12.5-1.328 136.97 136.97 0 0 1-45.71 18.942 9.999 9.999 0 0 0-7.9 9.777V418h-42.527v-17.254c0-4.71-3.293-8.785-7.898-9.777-16.3-3.5-31.68-9.875-45.711-18.942zm0 0"></path>
    <path d="M338.629 256c0-45.563-37.067-82.629-82.629-82.629S173.371 210.437 173.371 256s37.066 82.629 82.629 82.629 82.629-37.066 82.629-82.629zm-145.258 0c0-34.535 28.094-62.629 62.629-62.629S318.629 221.47 318.629 256 290.535 318.629 256 318.629 193.371 290.535 193.371 256zM348.078 37.82c2.633 0 5.211-1.07 7.07-2.93a10.121 10.121 0 0 0 2.93-7.081c0-2.618-1.066-5.2-2.93-7.07a10.073 10.073 0 0 0-7.07-2.93 10.05 10.05 0 0 0-7.066 2.93 10.087 10.087 0 0 0-2.934 7.07c0 2.64 1.07 5.21 2.934 7.082a10.05 10.05 0 0 0 7.066 2.93zM164.36 474.36a10.08 10.08 0 0 0-7.07 2.93 10.08 10.08 0 0 0-2.93 7.07c0 2.64 1.07 5.21 2.93 7.07 1.858 1.86 4.44 2.93 7.07 2.93s5.21-1.07 7.07-2.93c1.86-1.86 2.93-4.442 2.93-7.07s-1.07-5.212-2.93-7.07a10.08 10.08 0 0 0-7.07-2.93zm0 0"></path>
  </symbol>
</svg>